<svg width="7" height="7" viewBox="0 0 7 7" fill="none" xmlns="http://www.w3.org/2000/svg">
<path d="M0.664 3.24C0.664 2.82933 0.741333 2.44267 0.896 2.08C1.056 1.71733 1.26933 1.40267 1.536 1.136C1.80267 0.864 2.11467 0.650666 2.472 0.496C2.83467 0.336 3.21867 0.256 3.624 0.256C4.03467 0.256 4.42133 0.336 4.784 0.496C5.14667 0.650666 5.46133 0.864 5.728 1.136C6 1.40267 6.21333 1.71733 6.368 2.08C6.528 2.44267 6.608 2.82933 6.608 3.24C6.608 3.65067 6.528 4.03733 6.368 4.4C6.21333 4.75733 6 5.06933 5.728 5.336C5.46133 5.60267 5.14667 5.816 4.784 5.976C4.42133 6.13067 4.03467 6.208 3.624 6.208C3.21867 6.208 2.83467 6.13067 2.472 5.976C2.11467 5.816 1.80267 5.60267 1.536 5.336C1.26933 5.06933 1.056 4.75733 0.896 4.4C0.741333 4.03733 0.664 3.65067 0.664 3.24Z" fill="#D3E7E3"/>
</svg>
