<svg width="14" height="23" viewBox="0 0 14 23" fill="none" xmlns="http://www.w3.org/2000/svg">
<path d="M8.61998 22.9551H4.76908C4.12585 22.9551 3.60261 22.4546 3.60261 21.8394V13.5317H1.35592C0.712692 13.5317 0.189453 13.031 0.189453 12.416V8.8561C0.189453 8.24088 0.712692 7.74043 1.35592 7.74043H3.60261V5.95776C3.60261 4.19019 4.18291 2.68636 5.28057 1.60912C6.38319 0.526955 7.9241 -0.0449219 9.73673 -0.0449219L12.6736 -0.0403595C13.3157 -0.0393066 13.8381 0.461151 13.8381 1.07532V4.38059C13.8381 4.9958 13.315 5.49626 12.672 5.49626L10.6946 5.49696C10.0915 5.49696 9.93799 5.6126 9.90515 5.64805C9.85103 5.70683 9.78663 5.87301 9.78663 6.33188V7.74025H12.5234C12.7294 7.74025 12.929 7.78886 13.1005 7.88046C13.4706 8.07822 13.7006 8.45216 13.7006 8.85628L13.6992 12.4162C13.6992 13.031 13.1759 13.5315 12.5327 13.5315H9.78663V21.8394C9.78663 22.4546 9.26321 22.9551 8.61998 22.9551V22.9551ZM5.01235 21.6067H8.37671V12.928C8.37671 12.5172 8.72621 12.1831 9.15551 12.1831H12.2894L12.2907 9.08878H9.15533C8.72602 9.08878 8.37671 8.75468 8.37671 8.34389V6.33188C8.37671 5.8051 8.43267 5.20602 8.8484 4.75575C9.35072 4.21143 10.1424 4.14861 10.6942 4.14861L12.4283 4.1479V1.30765L9.73563 1.30344C6.82259 1.30344 5.01235 3.08698 5.01235 5.95776V8.34389C5.01235 8.7545 4.66304 9.08878 4.23373 9.08878H1.59919V12.1831H4.23373C4.66304 12.1831 5.01235 12.5172 5.01235 12.928V21.6067ZM12.6709 1.308H12.671H12.6709Z" fill="black"/>
</svg>
