<svg width="64" height="64" viewBox="0 0 64 64" fill="none" xmlns="http://www.w3.org/2000/svg">
<path d="M63.5 32C63.5 14.6031 49.397 0.500031 32 0.500031C14.603 0.500031 0.5 14.6031 0.5 32C0.5 49.397 14.603 63.5 32 63.5C49.397 63.5 63.5 49.397 63.5 32Z" stroke="white"/>
<path d="M39.7748 23.1903C39.7744 23.1903 39.774 23.1902 39.7735 23.1902L32.8626 23.2208C32.3449 23.2231 31.9269 23.6446 31.9292 24.1624C31.9315 24.6802 32.353 25.0981 32.8708 25.0958L37.5107 25.0753L23.4998 39.1425C23.1344 39.5093 23.1356 40.1029 23.5025 40.4683C23.8693 40.8337 24.4629 40.8325 24.8283 40.4656L38.8392 26.3985L38.8373 31.0384C38.8371 31.5562 39.2567 31.976 39.7744 31.9762C40.2923 31.9765 40.7121 31.5568 40.7123 31.0391L40.7152 24.1281C40.7152 24.1277 40.7151 24.1273 40.7152 24.1268C40.7146 23.6081 40.2919 23.1887 39.7748 23.1903Z" fill="white"/>
</svg>
