<svg width="38" height="38" viewBox="0 0 38 38" fill="none" xmlns="http://www.w3.org/2000/svg">
<rect x="-0.5" y="0.5" width="37" height="37" rx="18.5" transform="matrix(-1 0 0 1 37 0.000488281)" stroke="#212121"/>
<g clip-path="url(#clip0_3913_224)">
<path d="M25.9271 19.6345C25.9269 19.6347 25.9268 19.6349 25.9266 19.635L22.9362 22.6109C22.7122 22.8339 22.3499 22.833 22.1269 22.609C21.9039 22.385 21.9048 22.0226 22.1288 21.7997L24.1365 19.8017L12.0166 19.8017C11.7006 19.8017 11.4443 19.5455 11.4443 19.2294C11.4443 18.9133 11.7006 18.6571 12.0166 18.6571L24.1365 18.6571L22.1288 16.6591C21.9048 16.4362 21.904 16.0738 22.1269 15.8498C22.3499 15.6257 22.7123 15.625 22.9363 15.8479L25.9266 18.8238C25.9268 18.8239 25.9269 18.8241 25.9271 18.8243C26.1513 19.048 26.1505 19.4115 25.9271 19.6345Z" fill="#212121"/>
</g>
<defs>
<clipPath id="clip0_3913_224">
<rect width="14.6506" height="14.6506" fill="white" transform="matrix(1 8.74228e-08 8.74228e-08 -1 11.4443 26.5547)"/>
</clipPath>
</defs>
</svg>
