<svg width="38" height="38" viewBox="0 0 38 38" fill="none" xmlns="http://www.w3.org/2000/svg">
<rect x="-0.5" y="0.5" width="37" height="37" rx="18.5" transform="matrix(-1 0 0 1 37 0)" stroke="#BABABA"/>
<g clip-path="url(#clip0_3832_301)">
<path d="M25.9271 19.6342C25.9269 19.6344 25.9268 19.6346 25.9266 19.6348L22.9362 22.6107C22.7122 22.8336 22.3499 22.8328 22.1269 22.6088C21.9039 22.3847 21.9048 22.0224 22.1288 21.7994L24.1365 19.8014L12.0166 19.8014C11.7006 19.8014 11.4443 19.5452 11.4443 19.2292C11.4443 18.9131 11.7006 18.6569 12.0166 18.6569L24.1365 18.6569L22.1288 16.6589C21.9048 16.4359 21.904 16.0736 22.1269 15.8496C22.3499 15.6255 22.7123 15.6247 22.9363 15.8476L25.9266 18.8235C25.9268 18.8237 25.9269 18.8239 25.9271 18.8241C26.1513 19.0478 26.1505 19.4113 25.9271 19.6342Z" fill="#BABABA"/>
</g>
<defs>
<clipPath id="clip0_3832_301">
<rect width="14.6506" height="14.6506" fill="white" transform="matrix(1 8.74228e-08 8.74228e-08 -1 11.4443 26.5542)"/>
</clipPath>
</defs>
</svg>
