<svg width="38" height="38" viewBox="0 0 38 38" fill="none" xmlns="http://www.w3.org/2000/svg">
<rect x="-0.5" y="0.5" width="37" height="37" rx="18.5" transform="matrix(-1 0 0 1 37 0)" stroke="#F47648"/>
<path d="M26.4828 18.9531C26.4826 18.9533 26.4824 18.9535 26.4822 18.9536L23.4919 21.9295C23.2679 22.1525 22.9055 22.1516 22.6825 21.9276C22.4596 21.7036 22.4604 21.3412 22.6845 21.1183L24.6922 19.1203L12.5723 19.1203C12.2562 19.1203 12 18.8641 12 18.548C12 18.2319 12.2562 17.9757 12.5723 17.9757L24.6921 17.9757L22.6845 15.9777C22.4605 15.7548 22.4596 15.3924 22.6826 15.1684C22.9056 14.9443 23.2679 14.9436 23.4919 15.1665L26.4823 18.1424C26.4824 18.1425 26.4826 18.1427 26.4828 18.1429C26.7069 18.3666 26.7062 18.7301 26.4828 18.9531Z" fill="#F47648"/>
</svg>
