<svg width="38" height="39" viewBox="0 0 38 39" fill="none" xmlns="http://www.w3.org/2000/svg">
<rect x="-0.5" y="0.5" width="37" height="37" rx="18.5" transform="matrix(-1 0 0 1 37 0.122314)" stroke="white"/>
<g clip-path="url(#clip0_465_653)">
<path d="M25.9271 19.7564C25.9269 19.7566 25.9268 19.7568 25.9266 19.757L22.9362 22.7329C22.7122 22.9558 22.3499 22.955 22.1269 22.7309C21.9039 22.5069 21.9048 22.1446 22.1288 21.9216L24.1365 19.9236L12.0166 19.9236C11.7006 19.9236 11.4443 19.6674 11.4443 19.3513C11.4443 19.0352 11.7006 18.779 12.0166 18.779L24.1365 18.779L22.1288 16.7811C21.9048 16.5581 21.904 16.1958 22.1269 15.9717C22.3499 15.7476 22.7123 15.7469 22.9363 15.9698L25.9266 18.9457C25.9268 18.9459 25.9269 18.9461 25.9271 18.9462C26.1513 19.1699 26.1505 19.5335 25.9271 19.7564Z" fill="white"/>
</g>
<defs>
<clipPath id="clip0_465_653">
<rect width="14.6506" height="14.6506" fill="white" transform="matrix(1 8.74228e-08 8.74228e-08 -1 11.4443 26.6766)"/>
</clipPath>
</defs>
</svg>
