<svg width="38" height="38" viewBox="0 0 38 38" fill="none" xmlns="http://www.w3.org/2000/svg">
<rect x="0.5" y="-0.5" width="37" height="37" rx="18.5" transform="matrix(1 0 0 -1 0 37)" stroke="#F47648"/>
<path d="M11.5172 19.0469C11.5174 19.0467 11.5176 19.0465 11.5178 19.0464L14.5081 16.0705C14.7321 15.8475 15.0945 15.8484 15.3175 16.0724C15.5404 16.2964 15.5396 16.6588 15.3155 16.8817L13.3078 18.8797L25.4277 18.8797C25.7438 18.8797 26 19.1359 26 19.452C26 19.7681 25.7438 20.0243 25.4277 20.0243L13.3079 20.0243L15.3155 22.0223C15.5395 22.2452 15.5404 22.6076 15.3174 22.8316C15.0944 23.0557 14.7321 23.0564 14.5081 22.8335L11.5177 19.8576C11.5176 19.8575 11.5174 19.8573 11.5172 19.8571C11.2931 19.6334 11.2938 19.2699 11.5172 19.0469Z" fill="#F47648"/>
</svg>
