<svg width="38" height="39" viewBox="0 0 38 39" fill="none" xmlns="http://www.w3.org/2000/svg">
<rect x="0.5" y="-0.5" width="37" height="37" rx="18.5" transform="matrix(1 0 0 -1 0 37.1223)" stroke="white"/>
<g clip-path="url(#clip0_3875_119)">
<path d="M12.0719 18.4882C12.0721 18.488 12.0723 18.4878 12.0725 18.4876L15.0628 15.5117C15.2868 15.2888 15.6491 15.2896 15.8721 15.5137C16.0951 15.7377 16.0942 16.1001 15.8702 16.323L13.8625 18.321L25.9824 18.321C26.2985 18.321 26.5547 18.5772 26.5547 18.8933C26.5547 19.2094 26.2985 19.4656 25.9824 19.4656L13.8625 19.4656L15.8702 21.4635C16.0942 21.6865 16.0951 22.0489 15.8721 22.2729C15.6491 22.497 15.2867 22.4977 15.0627 22.2748L12.0724 19.2989C12.0723 19.2987 12.0721 19.2985 12.0719 19.2984C11.8478 19.0747 11.8485 18.7112 12.0719 18.4882Z" fill="white"/>
</g>
<defs>
<clipPath id="clip0_3875_119">
<rect width="14.6506" height="14.6506" fill="white" transform="matrix(-1 -8.74228e-08 -8.74228e-08 1 26.5547 11.5681)"/>
</clipPath>
</defs>
</svg>
