<svg width="38" height="38" viewBox="0 0 38 38" fill="none" xmlns="http://www.w3.org/2000/svg">
<rect x="0.5" y="-0.5" width="37" height="37" rx="18.5" transform="matrix(1 0 0 -1 0 37)" stroke="white" stroke-opacity="0.05"/>
<g clip-path="url(#clip0_3832_317)">
<path d="M12.0729 18.3658C12.0731 18.3656 12.0732 18.3654 12.0734 18.3652L15.0638 15.3893C15.2878 15.1664 15.6501 15.1672 15.8731 15.3912C16.0961 15.6153 16.0952 15.9776 15.8712 16.2006L13.8635 18.1986L25.9834 18.1986C26.2994 18.1986 26.5557 18.4548 26.5557 18.7708C26.5557 19.0869 26.2994 19.3431 25.9834 19.3431L13.8635 19.3431L15.8712 21.3411C16.0952 21.5641 16.096 21.9264 15.8731 22.1504C15.6501 22.3745 15.2877 22.3753 15.0637 22.1524L12.0734 19.1765C12.0732 19.1763 12.0731 19.1761 12.0729 19.1759C11.8487 18.9522 11.8495 18.5887 12.0729 18.3658Z" fill="white" fill-opacity="0.05"/>
</g>
<defs>
<clipPath id="clip0_3832_317">
<rect width="14.6506" height="14.6506" fill="white" transform="matrix(-1 -8.74228e-08 -8.74228e-08 1 26.5557 11.4458)"/>
</clipPath>
</defs>
</svg>
