<svg width="38" height="38" viewBox="0 0 38 38" fill="none" xmlns="http://www.w3.org/2000/svg">
<rect x="0.5" y="-0.5" width="37" height="37" rx="18.5" transform="matrix(1 0 0 -1 0 37.0005)" stroke="#212121"/>
<g clip-path="url(#clip0_3913_224)">
<path d="M12.0729 18.3665C12.0731 18.3663 12.0732 18.3661 12.0734 18.3659L15.0638 15.39C15.2878 15.1671 15.6501 15.1679 15.8731 15.392C16.0961 15.616 16.0952 15.9783 15.8712 16.2013L13.8635 18.1993L25.9834 18.1993C26.2994 18.1993 26.5557 18.4555 26.5557 18.7716C26.5557 19.0877 26.2994 19.3439 25.9834 19.3439L13.8635 19.3439L15.8712 21.3418C16.0952 21.5648 16.096 21.9272 15.8731 22.1512C15.6501 22.3753 15.2877 22.376 15.0637 22.1531L12.0734 19.1772C12.0732 19.177 12.0731 19.1768 12.0729 19.1767C11.8487 18.953 11.8495 18.5894 12.0729 18.3665Z" fill="#212121"/>
</g>
<defs>
<clipPath id="clip0_3913_224">
<rect width="14.6506" height="14.6506" fill="white" transform="matrix(-1 -8.74228e-08 -8.74228e-08 1 26.5557 11.4463)"/>
</clipPath>
</defs>
</svg>
