<svg width="32" height="32" viewBox="0 0 32 32" fill="none" xmlns="http://www.w3.org/2000/svg">
<g opacity="0.8">
<path d="M16 32C12.8355 32 9.74207 31.0616 7.11088 29.3035C4.4797 27.5454 2.42894 25.0466 1.21793 22.1229C0.00693261 19.1993 -0.309921 15.9823 0.307443 12.8786C0.924806 9.77486 2.44866 6.92394 4.6863 4.6863C6.92394 2.44866 9.77486 0.924806 12.8786 0.307443C15.9823 -0.309921 19.1993 0.00693261 22.1229 1.21793C25.0466 2.42894 27.5454 4.4797 29.3035 7.11088C31.0616 9.74207 32 12.8355 32 16C31.9952 20.242 30.3079 24.3088 27.3084 27.3084C24.3088 30.3079 20.242 31.9952 16 32ZM16 0.914293C13.0163 0.914293 10.0997 1.79905 7.61883 3.45669C5.138 5.11433 3.20443 7.4704 2.06262 10.227C0.920822 12.9835 0.622075 16.0167 1.20416 18.9431C1.78625 21.8694 3.22302 24.5574 5.3328 26.6672C7.44257 28.777 10.1306 30.2138 13.0569 30.7958C15.9833 31.3779 19.0165 31.0792 21.7731 29.9374C24.5296 28.7956 26.8857 26.862 28.5433 24.3812C30.201 21.9003 31.0857 18.9837 31.0857 16C31.0811 12.0004 29.4903 8.166 26.6621 5.33787C23.834 2.50975 19.9996 0.91889 16 0.914293Z" fill="#313131"/>
<path d="M15.9998 5.74832C15.8851 5.74832 15.7751 5.70276 15.694 5.62167C15.6129 5.54057 15.5674 5.43058 15.5674 5.31589V4.43243C15.5674 4.31774 15.6129 4.20775 15.694 4.12666C15.7751 4.04556 15.8851 4 15.9998 4C16.1145 4 16.2245 4.04556 16.3056 4.12666C16.3867 4.20775 16.4323 4.31774 16.4323 4.43243V5.31589C16.4323 5.43058 16.3867 5.54057 16.3056 5.62167C16.2245 5.70276 16.1145 5.74832 15.9998 5.74832Z" fill="#313131"/>
<path d="M15.9998 28.7483C15.8851 28.7483 15.7751 28.7028 15.694 28.6217C15.6129 28.5406 15.5674 28.4306 15.5674 28.3159V27.4324C15.5674 27.3177 15.6129 27.2078 15.694 27.1267C15.7751 27.0456 15.8851 27 15.9998 27C16.1145 27 16.2245 27.0456 16.3056 27.1267C16.3867 27.2078 16.4323 27.3177 16.4323 27.4324V28.3159C16.4323 28.4306 16.3867 28.5406 16.3056 28.6217C16.2245 28.7028 16.1145 28.7483 15.9998 28.7483Z" fill="#313131"/>
<path d="M23.4323 9.49504C23.3468 9.49502 23.2632 9.46965 23.1921 9.42213C23.121 9.37462 23.0656 9.30709 23.0329 9.22808C23.0002 9.14908 22.9916 9.06214 23.0083 8.97827C23.025 8.8944 23.0662 8.81736 23.1266 8.75688L23.751 8.13202C23.7909 8.09071 23.8386 8.05777 23.8914 8.03511C23.9442 8.01244 24.0009 8.00052 24.0583 8.00002C24.1157 7.99952 24.1727 8.01046 24.2258 8.0322C24.279 8.05394 24.3273 8.08605 24.3679 8.12666C24.4085 8.16726 24.4406 8.21554 24.4623 8.26869C24.4841 8.32183 24.495 8.37877 24.4945 8.43619C24.494 8.49361 24.4821 8.55035 24.4594 8.60311C24.4367 8.65587 24.4038 8.70359 24.3625 8.74348L23.7381 9.36834C23.657 9.44944 23.547 9.49502 23.4323 9.49504Z" fill="#313131"/>
<path d="M7.43234 24.4844C7.34683 24.4844 7.26324 24.459 7.19214 24.4115C7.12105 24.364 7.06563 24.2965 7.03291 24.2174C7.00019 24.1384 6.99163 24.0515 7.0083 23.9676C7.02498 23.8838 7.06615 23.8067 7.12661 23.7462L7.75104 23.1214C7.8326 23.0426 7.94184 22.999 8.05522 23C8.1686 23.001 8.27706 23.0465 8.35724 23.1267C8.43741 23.2068 8.48289 23.3153 8.48388 23.4287C8.48486 23.5421 8.44128 23.6513 8.36251 23.7328L7.73807 24.3577C7.65699 24.4388 7.54702 24.4844 7.43234 24.4844Z" fill="#313131"/>
<path d="M28.3163 16.4324H27.4324C27.3177 16.4324 27.2078 16.3869 27.1267 16.3058C27.0456 16.2247 27 16.1147 27 16C27 15.8853 27.0456 15.7753 27.1267 15.6942C27.2078 15.6131 27.3177 15.5676 27.4324 15.5676H28.3163C28.431 15.5676 28.541 15.6131 28.6221 15.6942C28.7032 15.7753 28.7488 15.8853 28.7488 16C28.7488 16.1147 28.7032 16.2247 28.6221 16.3058C28.541 16.3869 28.431 16.4324 28.3163 16.4324Z" fill="#313131"/>
<path d="M4.31632 16.4324H3.43243C3.31774 16.4324 3.20775 16.3869 3.12666 16.3058C3.04556 16.2247 3 16.1147 3 16C3 15.8853 3.04556 15.7753 3.12666 15.6942C3.20775 15.6131 3.31774 15.5676 3.43243 15.5676H4.31632C4.43101 15.5676 4.541 15.6131 4.6221 15.6942C4.70319 15.7753 4.74875 15.8853 4.74875 16C4.74875 16.1147 4.70319 16.2247 4.6221 16.3058C4.541 16.3869 4.43101 16.4324 4.31632 16.4324Z" fill="#313131"/>
<path d="M25.0516 23.4844C24.9369 23.4844 24.8269 23.4388 24.7458 23.3577L24.1214 22.7328C24.0426 22.6513 23.999 22.5421 24 22.4287C24.001 22.3153 24.0465 22.2068 24.1267 22.1267C24.2068 22.0465 24.3153 22.001 24.4287 22C24.5421 21.999 24.6513 22.0426 24.7329 22.1214L25.3573 22.7462C25.4178 22.8067 25.4589 22.8838 25.4756 22.9676C25.4923 23.0515 25.4837 23.1384 25.451 23.2174C25.4183 23.2965 25.3629 23.364 25.2918 23.4115C25.2207 23.459 25.1371 23.4844 25.0516 23.4844Z" fill="#313131"/>
<path d="M8.06218 9.49504C7.9475 9.49502 7.83752 9.44944 7.75645 9.36834L7.13202 8.74348C7.09071 8.70359 7.05777 8.65587 7.03511 8.60311C7.01244 8.55035 7.00052 8.49361 7.00002 8.43619C6.99952 8.37877 7.01046 8.32183 7.0322 8.26869C7.05394 8.21554 7.08605 8.16726 7.12666 8.12666C7.16726 8.08605 7.21554 8.05394 7.26868 8.0322C7.32183 8.01046 7.37877 7.99952 7.43619 8.00002C7.49361 8.00052 7.55035 8.01244 7.60311 8.03511C7.65587 8.05777 7.70358 8.09071 7.74347 8.13202L8.36791 8.75688C8.42836 8.81736 8.46953 8.8944 8.48621 8.97827C8.50289 9.06214 8.49433 9.14908 8.4616 9.22808C8.42888 9.30709 8.37347 9.37462 8.30237 9.42213C8.23128 9.46965 8.14769 9.49502 8.06218 9.49504Z" fill="#313131"/>
<path d="M13.6582 17.2973C13.5567 17.2973 13.4584 17.2616 13.3806 17.1965C13.3027 17.1314 13.2502 17.0409 13.2324 16.941C13.2145 16.8411 13.2323 16.7381 13.2827 16.65C13.3331 16.5619 13.4129 16.4944 13.5081 16.4592L15.5682 15.6973V9.94592C15.5682 9.83123 15.6138 9.72124 15.6949 9.64014C15.776 9.55905 15.886 9.51349 16.0007 9.51349C16.1153 9.51349 16.2253 9.55905 16.3064 9.64014C16.3875 9.72124 16.4331 9.83123 16.4331 9.94592V16C16.4331 16.0883 16.406 16.1746 16.3556 16.2471C16.3051 16.3196 16.2336 16.3749 16.1507 16.4056L13.8082 17.2704C13.7602 17.2881 13.7094 17.2972 13.6582 17.2973Z" fill="#313131"/>
</g>
</svg>
