<svg width="31" height="20" viewBox="0 0 31 20" fill="none" xmlns="http://www.w3.org/2000/svg">
<path d="M16.1344 19.375C20.4744 19.375 18.9269 16.6275 19.2619 15.8375C19.2569 15.2475 19.2519 14.68 19.2719 14.335C19.5469 14.4125 20.1956 14.7412 21.5356 16.0437C23.6044 18.1312 24.1331 19.375 25.8044 19.375H28.8806C29.8556 19.375 30.3631 18.9713 30.6169 18.6325C30.8619 18.305 31.1019 17.73 30.8394 16.835C30.1531 14.68 26.1506 10.9588 25.9019 10.5663C25.9394 10.4938 25.9994 10.3975 26.0306 10.3475H26.0281C26.8181 9.30375 29.8331 4.78625 30.2769 2.97875C30.2781 2.97625 30.2794 2.9725 30.2794 2.96875C30.5194 2.14375 30.2994 1.60875 30.0719 1.30625C29.7294 0.85375 29.1844 0.625 28.4481 0.625H25.3719C24.3419 0.625 23.5606 1.14375 23.1656 2.09C22.5044 3.77125 20.6469 7.22875 19.2544 8.4525C19.2119 6.71875 19.2406 5.395 19.2631 4.41125C19.3081 2.4925 19.4531 0.625 17.4619 0.625H12.6269C11.3794 0.625 10.1856 1.9875 11.4781 3.605C12.6081 5.0225 11.8844 5.8125 12.1281 9.745C11.1781 8.72625 9.48813 5.975 8.29313 2.45875C7.95813 1.5075 7.45062 0.62625 6.02187 0.62625H2.94562C1.69812 0.62625 0.953125 1.30625 0.953125 2.445C0.953125 5.0025 6.61438 19.375 16.1344 19.375V19.375ZM6.02187 2.50125C6.29312 2.50125 6.32062 2.50125 6.52187 3.0725C7.74562 6.67625 10.4906 12.0088 12.4956 12.0088C14.0019 12.0088 14.0019 10.465 14.0019 9.88375L14.0006 5.25625C13.9181 3.725 13.3606 2.9625 12.9944 2.5L17.3794 2.505C17.3819 2.52625 17.3544 7.62375 17.3919 8.85875C17.3919 10.6125 18.7844 11.6175 20.9581 9.4175C23.2519 6.82875 24.8381 2.95875 24.9019 2.80125C24.9956 2.57625 25.0769 2.5 25.3719 2.5H28.4481H28.4606C28.4594 2.50375 28.4594 2.5075 28.4581 2.51125C28.1769 3.82375 25.4006 8.00625 24.4719 9.305C24.4569 9.325 24.4431 9.34625 24.4294 9.3675C24.0206 10.035 23.6881 10.7725 24.4856 11.81H24.4869C24.5594 11.8975 24.7481 12.1025 25.0231 12.3875C25.8781 13.27 28.8106 16.2875 29.0706 17.4875C28.8981 17.515 28.7106 17.495 25.8044 17.5012C25.1856 17.5012 24.7019 16.5762 22.8556 14.7137C21.1956 13.0987 20.1181 12.4388 19.1369 12.4388C17.2319 12.4388 17.3706 13.985 17.3881 15.855C17.3944 17.8825 17.3819 17.2413 17.3956 17.3688C17.2844 17.4125 16.9656 17.5 16.1344 17.5C8.20313 17.5 3.03812 4.91125 2.83937 2.505C2.90812 2.49875 3.85437 2.5025 6.02187 2.50125V2.50125Z" fill="black"/>
</svg>
